<svg width="25" height="24" viewBox="0 0 25 24" fill="none" xmlns="http://www.w3.org/2000/svg">
<path fill-rule="evenodd" clip-rule="evenodd" d="M12 0.300056C9.15322 0.304153 6.40061 1.32018 4.23388 3.16665C2.06715 5.01312 0.627428 7.56976 0.171899 10.3799C-0.283631 13.19 0.274702 16.0705 1.74716 18.5069C3.21962 20.9433 5.5103 22.7768 8.21 23.6801C8.81 23.7901 9.03 23.4201 9.03 23.1001V21.1001C5.69 21.8301 5.03 19.5001 5.03 19.5001C4.80105 18.7481 4.30251 18.1071 3.63 17.7001C2.55 17.0001 3.72 17.0001 3.72 17.0001C4.1003 17.0548 4.46332 17.1947 4.78194 17.4094C5.10056 17.6242 5.36654 17.9081 5.56 18.2401C5.72182 18.5365 5.94092 18.7979 6.20458 19.009C6.46825 19.2201 6.77123 19.3767 7.09592 19.4697C7.42061 19.5628 7.76055 19.5904 8.09601 19.551C8.43146 19.5115 8.75573 19.4058 9.05 19.2401C9.10742 18.634 9.3765 18.0675 9.81 17.6401C7.14 17.3401 4.34 16.3101 4.34 11.7101C4.323 10.517 4.76722 9.36352 5.58 8.49006C5.20218 7.44158 5.24519 6.28751 5.7 5.27006C5.7 5.27006 6.7 5.00006 9 6.50006C10.9644 5.96672 13.0356 5.96672 15 6.50006C17.3 5.00006 18.3 5.27006 18.3 5.27006C18.7442 6.27594 18.7871 7.41356 18.42 8.45006C19.2291 9.32508 19.6697 10.4784 19.65 11.6701C19.65 16.2801 16.85 17.2901 14.18 17.5901C14.4672 17.8801 14.689 18.2283 14.8304 18.6113C14.9718 18.9942 15.0297 19.4029 15 19.8101V23.1001C15 23.4901 15.21 23.8001 15.82 23.6801C18.5221 22.776 20.8144 20.94 22.2867 18.5005C23.759 16.0609 24.3151 13.1771 23.8557 10.3651C23.3962 7.55298 21.9511 4.99616 19.779 3.15209C17.6068 1.30801 14.8494 0.297037 12 0.300056Z" fill="#9C9C9C"/>
</svg>
